<?xml version="1.0" encoding="utf-8"?>
<!-- Generator: Adobe Illustrator 26.0.2, SVG Export Plug-In . SVG Version: 6.00 Build 0)  -->
<svg version="1.1" id="Layer_1" xmlns="http://www.w3.org/2000/svg" xmlns:xlink="http://www.w3.org/1999/xlink" x="0px" y="0px"
	 viewBox="0 0 50 50" style="enable-background:new 0 0 50 50;" xml:space="preserve">
<style type="text/css">
	.st0{fill:none;stroke:#FFFFFF;stroke-width:2;stroke-linejoin:round;stroke-miterlimit:10;}
	.st1{fill:none;stroke:#FFFFFF;stroke-width:2;stroke-miterlimit:10;}
</style>
<g>
	<path class="st1" d="M18.34,33.26C20.6,31,28.38,23.22,33.9,17.7c4.48-4.48,7.28-10.07,8.17-12.02c0.12-0.25-0.14-0.51-0.4-0.4
		c-1.95,0.89-7.54,3.69-12.02,8.17c-5.52,5.52-13.3,13.3-15.56,15.56L18.34,33.26z"/>
	<path class="st1" d="M18.34,33.26c0,0-0.51,2.32,0,2.83c0.45,0.45,0.85,0.85,1.26,1.26c1.1-0.32,1.65,0.24,2.28,0.86
		c1.17,1.17,1.17,3.07,0,4.24c-1.17,1.17-3.07,1.17-4.24,0c-0.63-0.63-1.18-1.18-0.86-2.28c-1.09-1.09-0.79-0.79-1.96-1.96
		c-0.77-0.77-2.03-0.8-2.83,0c-0.69,0.69-2.57,2.57-3.38,3.38c0.04,0.82-0.24,1.65-0.86,2.28c-1.17,1.17-3.07,1.17-4.24,0
		c-1.17-1.17-1.17-3.07,0-4.24c0.63-0.63,1.46-0.91,2.28-0.86c0.81-0.81,2.69-2.69,3.38-3.38c0.8-0.8,0.77-2.06,0-2.83
		c-1.18-1.18-0.88-0.88-1.96-1.96c-0.82,0.04-1.65-0.24-2.28-0.86c-1.17-1.17-1.17-3.07,0-4.24c1.17-1.17,3.07-1.17,4.24,0
		c0.63,0.63,1.18,1.18,0.86,2.28c0.41,0.41,0.81,0.81,1.26,1.26c0.51,0.51,2.83,0,2.83,0L18.34,33.26z"/>
	<path class="st1" d="M30.94,24.05c2.22,2.22,4.04,4.05,4.96,4.96l-4.24,4.24c-0.88-0.88-2.61-2.61-4.72-4.72"/>
	<path class="st1" d="M18.94,20.54C17.96,19.56,17,18.6,16.1,17.7C11.62,13.22,8.82,7.63,7.93,5.68c-0.12-0.25,0.14-0.51,0.4-0.4
		c1.95,0.89,7.54,3.69,12.02,8.17c0.82,0.82,1.7,1.7,2.6,2.6"/>
	<path class="st1" d="M31.66,33.26c0,0,0.51,2.32,0,2.83c-0.45,0.45-0.85,0.85-1.26,1.26c-1.1-0.32-1.65,0.24-2.28,0.86
		c-1.17,1.17-1.17,3.07,0,4.24c1.17,1.17,3.07,1.17,4.24,0c0.63-0.63,1.18-1.18,0.86-2.28c1.09-1.09,0.79-0.79,1.96-1.96
		c0.77-0.77,2.03-0.8,2.83,0c0.69,0.69,2.57,2.57,3.38,3.38c-0.04,0.82,0.24,1.65,0.86,2.28c1.17,1.17,3.07,1.17,4.24,0
		c1.17-1.17,1.17-3.07,0-4.24c-0.63-0.63-1.46-0.91-2.28-0.86c-0.81-0.81-2.69-2.69-3.38-3.38c-0.8-0.8-0.77-2.06,0-2.83
		c1.18-1.18,0.88-0.88,1.96-1.96c0.82,0.04,1.65-0.24,2.28-0.86c1.17-1.17,1.17-3.07,0-4.24c-1.17-1.17-3.07-1.17-4.24,0
		c-0.63,0.63-1.18,1.18-0.86,2.28c-0.41,0.41-0.81,0.81-1.26,1.26c-0.51,0.51-2.83,0-2.83,0L31.66,33.26z"/>
</g>
</svg>
