<svg id="Layer_1" data-name="Layer 1" xmlns="http://www.w3.org/2000/svg" viewBox="0 0 50 50"><defs><style>.cls-1{fill:none;stroke:#fff;stroke-linejoin:round;stroke-width:2px;}</style></defs><polyline class="cls-1" points="16 39 16 31 18 29 18 26 11 26"/><polyline class="cls-1" points="4 26 10 8 16 26"/><polyline class="cls-1" points="33 19 25 2 17 19"/><path class="cls-1" d="M8,36V33a2,2,0,0,1,2-2h0a2,2,0,0,1,2,2v3"/><path class="cls-1" d="M8,45V42a2,2,0,0,1,2-2h0a2,2,0,0,1,2,2v3"/><path class="cls-1" d="M38,36V33a2,2,0,0,1,2-2h0a2,2,0,0,1,2,2v3"/><path class="cls-1" d="M23,35V32a2,2,0,0,1,2-2h0a2,2,0,0,1,2,2v3"/><path class="cls-1" d="M38,45V42a2,2,0,0,1,2-2h0a2,2,0,0,1,2,2v3"/><polyline class="cls-1" points="34 39 34 31 32 29 32 26 39 26"/><path class="cls-1" d="M44,26h4v3l-2,2V48H29V44c0-2.76-1.79-5-4-5s-4,2.24-4,5v4H4V31L2,29V26H6"/><polyline class="cls-1" points="46 26 40 8 34 26"/></svg>