<?xml version="1.0" encoding="utf-8"?>
<!-- Generator: Adobe Illustrator 26.0.2, SVG Export Plug-In . SVG Version: 6.00 Build 0)  -->
<svg version="1.1" id="Layer_1" xmlns="http://www.w3.org/2000/svg" xmlns:xlink="http://www.w3.org/1999/xlink" x="0px" y="0px"
	 viewBox="0 0 50 50" style="enable-background:new 0 0 50 50;" xml:space="preserve">
<style type="text/css">
	.st0{fill:none;stroke:#FFFFFF;stroke-width:2;stroke-linejoin:round;stroke-miterlimit:10;}
	.st1{fill:none;stroke:#FFFFFF;stroke-width:2;stroke-miterlimit:10;}
</style>
<g>
	<line class="st1" x1="25" y1="27.5" x2="25" y2="42.5"/>
	<polyline class="st1" points="1,44.5 19,44.5 21,46.5 29,46.5 31,44.5 49,44.5 	"/>
	<line class="st1" x1="25" y1="16.5" x2="25" y2="3.5"/>
	<line class="st1" x1="33" y1="17.5" x2="36" y2="6.5"/>
	<line class="st1" x1="41" y1="20.5" x2="45" y2="12.5"/>
	<line class="st1" x1="17" y1="17.5" x2="14" y2="6.5"/>
	<line class="st1" x1="9" y1="20.5" x2="5" y2="12.5"/>
	<line class="st1" x1="46" y1="40.5" x2="46" y2="44.5"/>
	<path class="st1" d="M25,28.5c-1.31-2-4.08-3-7.29-3c-3.88,0-6.71,2-9.71,2l-4,12v1l2,0c3,0,7.83-2,11.71-2c3.2,0,5.97,1,7.29,3
		c1.31-2,4.08-3,7.29-3c3.88,0,8.71,2,11.71,2h2v-1l-4-12c-3,0-5.83-2-9.71-2C29.08,25.5,26.31,26.5,25,28.5"/>
	<line class="st1" x1="4" y1="40.5" x2="4" y2="44.5"/>
</g>
</svg>
