<?xml version="1.0" encoding="utf-8"?>
<!-- Generator: Adobe Illustrator 26.0.2, SVG Export Plug-In . SVG Version: 6.00 Build 0)  -->
<svg version="1.1" id="Layer_1" xmlns="http://www.w3.org/2000/svg" xmlns:xlink="http://www.w3.org/1999/xlink" x="0px" y="0px"
	 viewBox="0 0 50 50" style="enable-background:new 0 0 50 50;" xml:space="preserve">
<style type="text/css">
	.st0{fill:none;stroke:#FFFFFF;stroke-width:2;stroke-linejoin:round;stroke-miterlimit:10;}
	.st1{fill:none;stroke:#FFFFFF;stroke-width:2;stroke-miterlimit:10;}
</style>
<g>
	<polygon class="st0" points="28.26,34.41 30.26,38.41 34.26,40.41 30.26,42.41 28.26,46.41 26.26,42.41 22.26,40.41 26.26,38.41 	
		"/>
	<polygon class="st0" points="10.26,5.41 12.26,9.41 16.26,11.41 12.26,13.41 10.26,17.41 8.26,13.41 4.26,11.41 8.26,9.41 	"/>
	<polygon class="st0" points="41.26,30.41 42.92,33.74 46.26,35.41 42.92,37.08 41.26,40.41 39.59,37.08 36.26,35.41 39.59,33.74 	
		"/>
	<path class="st0" d="M35.06,18.55c-1.26,0.15-3.39,3.73-2.33,5.62c1.06,1.89,4.6,2.36,6.36,2.12c1.77-0.24,6.95-2.95,7.78-7.78
		c0.83-4.83,0.94-8.96-2.12-12.02c-3.06-3.06-8.43-3.01-11.31-2.83c-2.89,0.18-9.55,1.41-11.31,7.07
		c-1.77,5.66-2.71,11.85-5.66,14.56C13.52,28,5.62,38.84,3.32,40.43c-2.3,1.59,1.71,5.36,3.54,4.95
		c1.83-0.41,16.49-16.55,18.56-20.14c2.06-3.59,1.24-9.03,3.78-11.68c2.53-2.65,7.84-5.24,9.9-2.83c2.06,2.42,4.77,7.6,0.71,9.19
		C35.73,21.51,36.32,18.39,35.06,18.55z"/>
</g>
</svg>
